<?xml version="1.0" standalone="no"?><!DOCTYPE svg PUBLIC "-//W3C//DTD SVG 1.1//EN" "http://www.w3.org/Graphics/SVG/1.1/DTD/svg11.dtd"><svg t="1715088298364" class="icon" viewBox="0 0 1024 1024" version="1.1" xmlns="http://www.w3.org/2000/svg" p-id="7854" xmlns:xlink="http://www.w3.org/1999/xlink" width="16" height="16"><path d="M832 1024h-640A192.426667 192.426667 0 0 1 0 832v-640A192.426667 192.426667 0 0 1 192 0h640A192.426667 192.426667 0 0 1 1024 192v640a192.426667 192.426667 0 0 1-192 192zM192 42.666667A149.333333 149.333333 0 0 0 42.666667 192v640A149.333333 149.333333 0 0 0 192 981.333333h640a149.333333 149.333333 0 0 0 149.333333-149.333333v-640A149.333333 149.333333 0 0 0 832 42.666667z" fill="#1296db" p-id="7855"></path><path d="M263.68 640a974.08 974.08 0 0 0 192.853333-50.773333v-59.306667a1013.76 1013.76 0 0 1-115.2 36.693333 1509.12 1509.12 0 0 0 128-199.68l-55.466666-21.333333-35.84 66.133333-62.72 7.68A951.04 951.04 0 0 0 404.48 256l-59.306667-23.893333a1066.666667 1066.666667 0 0 1-79.36 167.68 63.573333 63.573333 0 0 1-26.88 23.893333l17.066667 57.173333L344.32 469.333333a545.28 545.28 0 0 1-68.693333 93.866667 105.813333 105.813333 0 0 1-28.16 17.92z m523.093333 128v-59.733333h-47.36V260.693333h-256v446.293334h-47.786666V768z m-107.946666-360.96h-133.973334v-85.333333h133.973334z m0 150.613333h-133.973334v-92.16h133.973334z m0 149.333334h-133.973334v-90.88h133.973334zM256 764.16a885.76 885.76 0 0 0 195.84-67.413333v-59.733334a898.56 898.56 0 0 1-204.373333 64.853334z" fill="#1296db" p-id="7856"></path></svg>