<?xml version="1.0" standalone="no"?><!DOCTYPE svg PUBLIC "-//W3C//DTD SVG 1.1//EN" "http://www.w3.org/Graphics/SVG/1.1/DTD/svg11.dtd"><svg t="1710921363351" class="icon" viewBox="0 0 1024 1024" version="1.1" xmlns="http://www.w3.org/2000/svg" p-id="4274" xmlns:xlink="http://www.w3.org/1999/xlink" width="16" height="16"><path d="M1022.244571 1022.537143H1.097143V1.316571h1021.147428V1022.537143zM82.651429 940.909714h858.112V82.870857H82.651429v858.038857z" fill="#1296db" p-id="4275"></path><path d="M635.757714 1022.537143a40.740571 40.740571 0 0 1-40.740571-40.740572V42.057143a40.740571 40.740571 0 1 1 81.554286 0v939.666286a40.740571 40.740571 0 0 1-40.813715 40.813714zM395.702857 1022.537143a40.740571 40.740571 0 0 1-40.740571-40.740572V42.057143a40.740571 40.740571 0 1 1 81.554285 0v939.666286a40.740571 40.740571 0 0 1-40.740571 40.813714z" fill="#1296db" p-id="4276"></path><path d="M38.985143 327.68c-7.899429 0.219429-15.213714-6.217143-19.163429-16.822857a51.2 51.2 0 0 1 0-34.523429c3.949714-10.678857 11.264-17.115429 19.163429-16.896h349.184c11.922286 0.292571 21.430857 15.506286 21.430857 34.084572 0 18.651429-9.508571 33.792-21.430857 34.157714H38.985143z m349.257143 238.957714H21.357714C9.508571 566.272 0 551.058286 0 532.48s9.508571-33.792 21.357714-34.157714h366.884572c11.849143 0.365714 21.357714 15.579429 21.357714 34.157714s-9.508571 33.792-21.357714 34.157714z m0 238.884572H21.357714C9.508571 805.302857 0 790.016 0 771.437714c0-18.651429 9.508571-33.792 21.357714-34.157714h366.884572c11.849143 0.365714 21.357714 15.506286 21.357714 34.157714 0 18.578286-9.508571 33.792-21.357714 34.084572zM653.385143 327.68c-7.899429 0.219429-15.213714-6.217143-19.163429-16.822857a51.2 51.2 0 0 1 0-34.523429c3.949714-10.678857 11.264-17.115429 19.163429-16.896h349.184c11.922286 0.292571 21.430857 15.506286 21.430857 34.084572 0 18.651429-9.508571 33.792-21.430857 34.157714H653.385143z m349.257143 238.957714H635.757714C623.908571 566.272 614.4 551.058286 614.4 532.48s9.508571-33.792 21.357714-34.157714h366.884572c11.849143 0.365714 21.357714 15.579429 21.357714 34.157714s-9.508571 33.792-21.357714 34.157714z m0 238.884572H635.757714c-11.849143-0.292571-21.357714-15.506286-21.357714-34.084572 0-18.651429 9.508571-33.792 21.357714-34.157714h366.884572c11.849143 0.365714 21.357714 15.506286 21.357714 34.157714 0 18.578286-9.508571 33.792-21.357714 34.084572z" fill="#1296db" p-id="4277"></path></svg>