<?xml version="1.0" standalone="no"?><!DOCTYPE svg PUBLIC "-//W3C//DTD SVG 1.1//EN" "http://www.w3.org/Graphics/SVG/1.1/DTD/svg11.dtd"><svg t="1703039739455" class="icon" viewBox="0 0 1024 1024" version="1.1" xmlns="http://www.w3.org/2000/svg" p-id="1469" xmlns:xlink="http://www.w3.org/1999/xlink" width="16" height="16"><path d="M512.000256 1023.998208a508.823819 508.823819 0 0 1-362.008333-149.938675A508.875019 508.875019 0 0 1 0.002048 512 508.46542 508.46542 0 0 1 149.966323 149.991667 508.61902 508.61902 0 0 1 512.000256 0.001792a508.747019 508.747019 0 0 1 362.059533 149.938675A508.56782 508.56782 0 0 1 1023.998464 512a508.875019 508.875019 0 0 1-149.964275 362.110733A508.926219 508.926219 0 0 1 512.000256 1023.998208zM249.754774 478.438517a44.723043 44.723043 0 0 0-31.820689 13.158354 44.543844 44.543844 0 0 0-13.158354 31.743889 44.620644 44.620644 0 0 0 13.158354 31.743889l158.898644 158.949844a44.723043 44.723043 0 0 0 31.641489 13.107154h0.2048a44.595044 44.595044 0 0 0 31.795088-13.107154l31.743889-31.795089 349.592377-349.592376a44.390245 44.390245 0 0 0 13.132754-31.692689 44.646244 44.646244 0 0 0-13.183954-31.795089A44.543844 44.543844 0 0 0 789.989683 256.000896a44.543844 44.543844 0 0 0-31.769489 13.158354L408.627818 618.700427 281.601062 491.520072a44.569444 44.569444 0 0 0-31.871888-13.081555z" fill="#8CC63F" p-id="1470"></path></svg>