<?xml version="1.0" standalone="no"?><!DOCTYPE svg PUBLIC "-//W3C//DTD SVG 1.1//EN" "http://www.w3.org/Graphics/SVG/1.1/DTD/svg11.dtd"><svg t="1706428674347" class="icon" viewBox="0 0 1024 1024" version="1.1" xmlns="http://www.w3.org/2000/svg" p-id="4327" xmlns:xlink="http://www.w3.org/1999/xlink" width="16" height="16"><path d="M1004.8 1019.733333H19.2c-8.533333 0-17.066667-6.4-17.066667-17.066666V19.2C2.133333 10.666667 8.533333 2.133333 19.2 2.133333H1002.666667c8.533333 0 17.066667 6.4 17.066666 17.066667V1002.666667c0 10.666667-6.4 17.066667-14.933333 17.066666zM36.266667 987.733333h951.466666V36.266667H36.266667v951.466666z" p-id="4328" fill="#1296db"></path><path d="M1004.8 198.4H19.2c-4.266667 0-8.533333-2.133333-8.533333-8.533333v-170.666667C10.666667 14.933333 12.8 10.666667 19.2 10.666667H1002.666667c4.266667 0 8.533333 2.133333 8.533333 8.533333v170.666667c0 4.266667-2.133333 8.533333-6.4 8.533333zM27.733333 181.333333h968.533334V27.733333H27.733333v153.6z m866.133334 381.866667H130.133333c-4.266667 0-8.533333-4.266667-8.533333-8.533333V305.066667c0-4.266667 4.266667-8.533333 8.533333-8.533334H896c4.266667 0 8.533333 4.266667 8.533333 8.533334V554.666667c-2.133333 4.266667-4.266667 8.533333-10.666666 8.533333z m-755.2-14.933333h748.8v-234.666667H138.666667v234.666667z" p-id="4329" fill="#1296db"></path><path d="M893.866667 898.133333H512c-4.266667 0-8.533333-2.133333-8.533333-8.533333V554.666667c0-4.266667 4.266667-8.533333 8.533333-8.533334h381.866667c4.266667 0 8.533333 2.133333 8.533333 8.533334v334.933333c0 4.266667-2.133333 8.533333-8.533333 8.533333z m-373.333334-17.066666h366.933334V563.2H520.533333v317.866667z" p-id="4330" fill="#1296db"></path><path d="M512 898.133333H130.133333c-4.266667 0-8.533333-2.133333-8.533333-8.533333V554.666667c0-4.266667 4.266667-8.533333 8.533333-8.533334H512c4.266667 0 8.533333 2.133333 8.533333 8.533334v334.933333c0 4.266667-4.266667 8.533333-8.533333 8.533333z m-373.333333-17.066666h366.933333V563.2H138.666667v317.866667z m546.133333-768H98.133333c-4.266667 0-8.533333-4.266667-8.533333-8.533334s2.133333-8.533333 8.533333-8.533333h586.666667c4.266667 0 8.533333 2.133333 8.533333 8.533333-2.133333 4.266667-4.266667 8.533333-8.533333 8.533334z m119.466667 0H768c-4.266667 0-8.533333-4.266667-8.533333-8.533334s4.266667-8.533333 8.533333-8.533333h36.266667c4.266667 0 8.533333 2.133333 8.533333 8.533333 0 4.266667-4.266667 8.533333-8.533333 8.533334z m121.6 0h-36.266667c-4.266667 0-8.533333-4.266667-8.533333-8.533334s4.266667-8.533333 8.533333-8.533333h36.266667c4.266667 0 8.533333 2.133333 8.533333 8.533333 0 4.266667-4.266667 8.533333-8.533333 8.533334z" p-id="4331" fill="#1296db"></path></svg>