<?xml version="1.0" standalone="no"?><!DOCTYPE svg PUBLIC "-//W3C//DTD SVG 1.1//EN" "http://www.w3.org/Graphics/SVG/1.1/DTD/svg11.dtd"><svg t="1702286694755" class="icon" viewBox="0 0 1024 1024" version="1.1" xmlns="http://www.w3.org/2000/svg" p-id="9574" xmlns:xlink="http://www.w3.org/1999/xlink" width="16" height="16"><path d="M524.27 91.13C290.33 91.131 100 278.743 100 509.34c0 233.945 190.32 424.27 424.26 424.27 165.506 0 322.684-98.488 391.11-245.08 12.23-26.188 0.77-57.523-25.48-69.82-6.992-3.244-14.428-4.89-22.09-4.89-20.374 0-39.076 11.879-47.65 30.26-51.433 110.272-170.346 184.36-295.89 184.36-176.01 0-319.2-143.147-319.2-319.1 0-84.963 33.386-164.165 94.01-223.02 59.937-58.187 139.91-90.24 225.19-90.24 73.003 0 144.497 25.384 201.3 71.47l31.74 25.76-82.23 81.03c-2.779 2.776-1.777 6.211-1.22 7.56 0.662 1.598 2.308 4.28 5.95 4.28l120.72 0.18 113.3 0.18c1.855 0 3.464-0.969 4.52-1.83 1.629-1.475 2.475-3.245 2.52-5.26V344.7l0.74-199.29v-0.08c0.015-1.766-0.556-3.213-1.74-4.41-1.415-1.427-3.55-2.31-5.58-2.31l-82.74 81.54-25.14-22.08c-20.63-18.122-42.681-34.158-65.53-47.66l-0.2-0.12c-29.979-17.958-62.78-32.202-97.48-42.34-39.035-11.156-79.04-16.82-118.92-16.82z" p-id="9575"></path></svg>