<?xml version="1.0" standalone="no"?><!DOCTYPE svg PUBLIC "-//W3C//DTD SVG 1.1//EN" "http://www.w3.org/Graphics/SVG/1.1/DTD/svg11.dtd"><svg t="1702970663518" class="icon" viewBox="0 0 1024 1024" version="1.1" xmlns="http://www.w3.org/2000/svg" p-id="1489" width="16" height="16" xmlns:xlink="http://www.w3.org/1999/xlink"><path d="M384 841.143a54.857 54.857 0 1 0-109.75 0.036 54.857 54.857 0 0 0 109.75-0.036z m0-658.286a54.857 54.857 0 1 0-109.75 0.037 54.857 54.857 0 0 0 109.75-0.037zM749.714 256a54.857 54.857 0 1 0-109.75 0.037 54.857 54.857 0 0 0 109.75-0.037z m54.857 0a109.787 109.787 0 0 1-54.857 94.866c-1.719 206.3-148.004 252.014-245.138 282.844C413.733 662.272 384 675.986 384 731.429v14.848a109.714 109.714 0 0 1 54.857 94.866 109.75 109.75 0 0 1-219.428 0c0-40.558 22.272-75.996 54.857-94.866V277.723a109.714 109.714 0 0 1-54.857-94.866 109.75 109.75 0 0 1 219.428 0A109.787 109.787 0 0 1 384 277.723v284.014c29.147-14.3 60.014-23.99 87.99-32.585C578.268 495.433 638.83 470.309 640 350.866A109.714 109.714 0 0 1 585.143 256a109.75 109.75 0 0 1 219.428 0z" fill="#50C1E9" p-id="1490"></path></svg>