<?xml version="1.0" standalone="no"?><!DOCTYPE svg PUBLIC "-//W3C//DTD SVG 1.1//EN" "http://www.w3.org/Graphics/SVG/1.1/DTD/svg11.dtd"><svg t="1705905272438" class="icon" viewBox="0 0 1024 1024" version="1.1" xmlns="http://www.w3.org/2000/svg" p-id="4255" xmlns:xlink="http://www.w3.org/1999/xlink" width="16" height="16"><path d="M73.142857 0h877.714286c40.228571 0 73.142857 32.914286 73.142857 73.142857v877.714286c0 40.228571-32.914286 73.142857-73.142857 73.142857H73.142857c-40.228571 0-73.142857-32.914286-73.142857-73.142857V73.142857C0 32.914286 32.914286 0 73.142857 0z" fill="#FF6A00" p-id="4256"></path><path d="M433.005714 221.988571c12.434286 0 24.137143 4.022857 33.645715 11.337143l4.022857 3.291429 85.577143 80.822857c2.56 2.194286 5.485714 4.022857 9.142857 4.388571l3.657143 0.365715h236.251428c28.16 0 51.2 20.845714 54.125714 47.908571l0.365715 5.12v200.045714c0 10.24-8.045714 18.285714-18.285715 18.285715-9.142857 0-16.457143-6.582857-17.92-14.994286l-0.365714-3.291429v-200.045714c0-8.045714-6.217143-14.628571-14.262857-16.091428l-3.291429-0.365715h-236.251428a54.857143 54.857143 0 0 1-33.645714-11.337143l-4.022858-3.291428L446.171429 263.314286a16.530286 16.530286 0 0 0-9.142858-4.388572l-3.657142-0.365714H218.697143c-8.777143 0-15.725714 5.851429-17.188572 13.531429l-0.731428 2.925714v442.514286c0 8.045714 6.217143 14.628571 14.262857 16.091428l3.291429 0.365714h336.457142c10.24 0 18.285714 8.045714 18.285715 18.285715 0 9.142857-6.582857 16.457143-14.994286 17.92l-3.291429 0.365714h-336.457142c-28.16 0-51.2-20.845714-54.125715-47.908571l-0.365714-5.12V275.017143c0-27.794286 21.577143-50.102857 49.005714-52.662857l5.12-0.365715h215.04z m309.394286 393.508572c6.217143 6.217143 6.948571 16.091429 2.194286 23.405714l-2.194286 2.56-46.445714 46.445714H841.142857c10.24 0 18.285714 8.045714 18.285714 18.285715 0 9.142857-6.582857 16.457143-14.994285 17.92l-3.291429 0.365714h-145.188571l46.445714 46.445714c6.217143 6.217143 6.948571 16.091429 2.194286 23.405715l-2.194286 2.56c-6.217143 6.217143-16.091429 6.948571-23.405714 2.194285l-2.56-2.194285-77.531429-77.531429a18.761143 18.761143 0 0 1-2.194286-23.405714l2.194286-2.56 77.531429-77.531429c7.314286-7.314286 19.017143-7.314286 25.965714-0.365714z" fill="#FFFFFF" p-id="4257"></path></svg>