<?xml version="1.0" standalone="no"?><!DOCTYPE svg PUBLIC "-//W3C//DTD SVG 1.1//EN" "http://www.w3.org/Graphics/SVG/1.1/DTD/svg11.dtd"><svg t="1702286602220" class="icon" viewBox="0 0 1025 1024" version="1.1" xmlns="http://www.w3.org/2000/svg" p-id="7539" xmlns:xlink="http://www.w3.org/1999/xlink" width="16.015625" height="16"><path d="M928.581 75.987A89.84 89.84 0 0 0 839.828 0H89.84A89.84 89.84 0 0 0 0 89.84v746.54a89.84 89.84 0 0 0 70.249 87.637A114.951 114.951 0 0 0 184.172 1024h655.352c57.208 0 104.852-19.374 137.774-56.034 31.212-34.777 47.716-83.435 47.716-140.773V189.098a114.879 114.879 0 0 0-96.433-113.11zM591.204 52.165v103.417a36.965 36.965 0 0 1-36.921 36.922H375.299a36.965 36.965 0 0 1-36.922-36.922V52.165zM52.165 836.351V89.84A37.675 37.675 0 0 1 89.84 52.165h196.372v103.417A89.086 89.086 0 0 0 375.3 244.67H554.34a89.1 89.1 0 0 0 89.028-89.087V52.165h196.46a37.675 37.675 0 0 1 37.674 37.675v746.54a37.675 37.675 0 0 1-37.675 37.674h-93.926V638.283a89.1 89.1 0 0 0-89.086-89.1H272.823a89.1 89.1 0 0 0-89.086 89.085v235.728H89.84a37.675 37.675 0 0 1-37.675-37.645z m641.572 37.674H235.844V638.283a36.965 36.965 0 0 1 36.98-36.936h383.992a36.965 36.965 0 0 1 36.921 36.921z m279.112-46.92c0 91.927-48.586 144.643-133.31 144.643H184.172a62.8 62.8 0 0 1-60.396-45.586h716.052a89.84 89.84 0 0 0 89.84-89.84V129.76a62.598 62.598 0 0 1 43.21 59.41z" p-id="7540"></path><path d="M511.725 71.915h0.884q25.445 0 25.445 25.445v38.95q0 25.445-25.445 25.445h-0.884q-25.445 0-25.445-25.445V97.36q0-25.445 25.445-25.445z" p-id="7541"></path></svg>