<?xml version="1.0" standalone="no"?><!DOCTYPE svg PUBLIC "-//W3C//DTD SVG 1.1//EN" "http://www.w3.org/Graphics/SVG/1.1/DTD/svg11.dtd"><svg t="1712811687053" class="icon" viewBox="0 0 1024 1024" version="1.1" xmlns="http://www.w3.org/2000/svg" p-id="5594" id="mx_n_1712811687055" xmlns:xlink="http://www.w3.org/1999/xlink" width="16" height="16"><path d="M791.552 498.204444a227.584 227.584 0 0 1 18.887111 300.430223l142.023111 142.051555a28.444444 28.444444 0 0 1-40.220444 40.220445l-142.023111-142.023111a227.584 227.584 0 0 1-300.458667-340.679112 227.555556 227.555556 0 0 1 321.792 0zM768 56.888889a113.777778 113.777778 0 0 1 113.635556 108.088889L881.777778 170.666667v356.408889a283.448889 283.448889 0 0 0-250.993778-151.608889c-156.558222 0-283.477333 126.947556-283.477333 283.505777a283.448889 283.448889 0 0 0 152.092444 251.278223L170.666667 910.222222a113.777778 113.777778 0 0 1-113.635556-108.088889L56.888889 796.444444V170.666667a113.777778 113.777778 0 0 1 108.088889-113.635556L170.666667 56.888889h597.333333z m-258.019556 481.536a170.666667 170.666667 0 1 0 241.351112 241.351111 170.666667 170.666667 0 0 0-241.351112-241.351111zM426.666667 341.333333H199.111111a28.444444 28.444444 0 0 0-3.328 56.689778L199.111111 398.222222h227.555556a28.444444 28.444444 0 0 0 0-56.888889z m312.888889-142.222222H199.111111a28.444444 28.444444 0 0 0-3.328 56.689778L199.111111 256h540.444445a28.444444 28.444444 0 0 0 0-56.888889z" fill="#9B9FAB" p-id="5595"></path></svg>
