<?xml version="1.0" standalone="no"?><!DOCTYPE svg PUBLIC "-//W3C//DTD SVG 1.1//EN" "http://www.w3.org/Graphics/SVG/1.1/DTD/svg11.dtd"><svg t="1706342561064" class="icon" viewBox="0 0 1046 1024" version="1.1" xmlns="http://www.w3.org/2000/svg" p-id="4702" xmlns:xlink="http://www.w3.org/1999/xlink" width="16.34375" height="16"><path d="M490.157141 881.979246a237.9944 237.9944 0 0 1-165.465986-65.950256 16.867073 16.867073 0 0 1 0-23.782573 16.867073 16.867073 0 0 1 23.951243 0 204.766266 204.766266 0 0 0 142.189425 56.504695 198.525449 198.525449 0 1 0 0-397.050898A204.934937 204.934937 0 0 0 371.075605 489.145116a16.867073 16.867073 0 0 1-19.565804-27.493329 238.669083 238.669083 0 0 1 139.490693-44.360402 232.259595 232.259595 0 1 1 0 464.51919z" fill="#00A0E9" p-id="4703"></path><path d="M404.809751 507.361555h-2.867402l-50.601219-8.770878A21.589853 21.589853 0 0 1 337.341459 489.145116a22.433207 22.433207 0 0 1-3.710756-16.867073l8.939549-49.589194a16.867073 16.867073 0 0 1 33.734146 5.903475l-6.9155 38.456927 39.637622 6.746829a16.867073 16.867073 0 0 1-2.867403 33.734146zM1022.650634 296.860484H24.963268a16.867073 16.867073 0 0 1 0-33.734146h997.687366a16.867073 16.867073 0 0 1 0 33.734146z" fill="#00A0E9" p-id="4704"></path><path d="M665.068687 143.538791a33.228134 32.553451 0 1 0 66.456268 0 33.228134 32.553451 0 1 0-66.456268 0Z" fill="#00A0E9" p-id="4705"></path><path d="M778.246747 143.538791a33.228134 32.553451 0 1 0 66.456267 0 33.228134 32.553451 0 1 0-66.456267 0Z" fill="#00A0E9" p-id="4706"></path><path d="M891.256136 143.538791a33.228134 32.553451 0 1 0 66.456267 0 33.228134 32.553451 0 1 0-66.456267 0Z" fill="#00A0E9" p-id="4707"></path><path d="M972.724098 1024H73.87778A74.04645 74.04645 0 0 1 0 950.12222V73.87778A74.04645 74.04645 0 0 1 73.87778 0h898.846318a74.04645 74.04645 0 0 1 73.87778 73.87778v877.087794a74.04645 74.04645 0 0 1-73.87778 73.034426zM73.87778 33.734146A40.312304 40.312304 0 0 0 33.734146 73.87778v877.087794a40.312304 40.312304 0 0 0 40.143634 40.143634h898.846318a40.143634 40.143634 0 0 0 40.143634-40.143634v-877.087794A40.143634 40.143634 0 0 0 972.724098 33.734146z" fill="#00A0E9" p-id="4708"></path></svg>