<?xml version="1.0" standalone="no"?><!DOCTYPE svg PUBLIC "-//W3C//DTD SVG 1.1//EN" "http://www.w3.org/Graphics/SVG/1.1/DTD/svg11.dtd"><svg t="1710223348822" class="icon" viewBox="0 0 1024 1024" version="1.1" xmlns="http://www.w3.org/2000/svg" p-id="5956" width="16" height="16" xmlns:xlink="http://www.w3.org/1999/xlink"><path d="M992.65 373.55H31.35V101.88c0-34.57 28.12-62.69 62.69-62.69h835.92c34.57 0 62.69 28.12 62.69 62.69v271.67zM73.14 331.76h877.71V101.88c0-11.52-9.37-20.9-20.9-20.9H94.04c-11.52 0-20.9 9.38-20.9 20.9v229.88zM929.96 984.82H94.04c-34.57 0-62.69-28.12-62.69-62.69V441.47h961.31v480.65c-0.01 34.57-28.13 62.7-62.7 62.7zM73.14 483.27v438.86c0 11.53 9.38 20.9 20.9 20.9h835.92c11.53 0 20.9-9.37 20.9-20.9V483.27H73.14z" fill="#000333" p-id="5957"></path><path d="M825.47 269.06c-6.57 0-12.78-3.09-16.71-8.36l-62.69-83.59c-6.94-9.23-5.06-22.34 4.18-29.26 9.22-6.97 22.33-5.05 29.24 4.17l45.98 61.31 45.98-61.31c6.92-9.2 20.04-11.12 29.24-4.17 9.24 6.92 11.12 20.02 4.18 29.26l-62.69 83.59a20.862 20.862 0 0 1-16.71 8.36zM522.45 227.27H188.08c-11.54 0-20.9-9.36-20.9-20.9s9.36-20.9 20.9-20.9h334.37c11.55 0 20.9 9.36 20.9 20.9s-9.35 20.9-20.9 20.9zM658.29 629.55H156.73c-11.54 0-20.9-9.35-20.9-20.9s9.36-20.9 20.9-20.9h501.55c11.55 0 20.9 9.35 20.9 20.9s-9.34 20.9-20.89 20.9zM867.27 838.53H156.73c-11.54 0-20.9-9.35-20.9-20.9s9.36-20.9 20.9-20.9h710.53c11.55 0 20.9 9.35 20.9 20.9s-9.34 20.9-20.89 20.9z" fill="#000333" p-id="5958"></path></svg>